<svg width="744" height="160" viewBox="0 0 744 160" fill="none" xmlns="http://www.w3.org/2000/svg">
<path d="M0 10V160H48.6188V127.13C48.6188 121.667 54.5969 118.31 59.2616 121.153L75.3922 130.983C76.8814 131.891 78.7358 131.957 80.2858 131.157L102.057 119.931C106.716 117.528 112.265 120.91 112.265 126.152V160H160V47.7348C160 21.3716 138.628 0 112.265 0L80.7385 20.3217C78.9689 21.4624 76.6744 21.3723 74.9996 20.0965L48.6188 0H10C4.47715 0 0 4.47715 0 10Z" fill="url(#paint0_linear_28_2)"/>
<path d="M84.87 46.24V72.75C84.87 73.2633 85.1633 73.5933 85.75 73.74C88.5367 74.1067 91.25 74.29 93.89 74.29C99.83 74.29 104.34 73.0067 107.42 70.44C110.573 67.8 112.15 64.06 112.15 59.22C112.15 49.4667 106.063 44.59 93.89 44.59C91.25 44.59 88.5367 44.7733 85.75 45.14C85.1633 45.2867 84.87 45.6533 84.87 46.24ZM75.85 114C74.1633 114 72.6967 113.377 71.45 112.13C70.2767 110.883 69.69 109.417 69.69 107.73V40.52C69.69 38.76 70.2767 37.1833 71.45 35.79C72.6233 34.3967 74.09 33.6267 75.85 33.48C82.0833 32.8933 88.0967 32.6 93.89 32.6C104.89 32.6 113.14 34.8 118.64 39.2C124.14 43.5267 126.89 49.8333 126.89 58.12C126.89 67.2867 124.213 74.2167 118.86 78.91C113.58 83.6033 105.733 85.95 95.32 85.95C92.9 85.95 89.71 85.8033 85.75 85.51C85.1633 85.51 84.87 85.8033 84.87 86.39V107.73C84.87 109.417 84.2467 110.883 83 112.13C81.7533 113.377 80.2867 114 78.6 114H75.85Z" fill="white"/>
<path d="M229.12 69.64V85.96C229.12 89.16 230.48 92 233.2 94.48C236 96.96 239.24 98.2 242.92 98.2C247.16 98.2 250.52 96.48 253 93.04C255.48 89.6 256.72 84.52 256.72 77.8C256.72 64.2 252.12 57.4 242.92 57.4C239.24 57.4 236 58.64 233.2 61.12C230.48 63.6 229.12 66.44 229.12 69.64ZM220.12 135.4C218.28 135.4 216.68 134.72 215.32 133.36C213.96 132 213.28 130.4 213.28 128.56V53.44C213.28 51.6 213.96 50 215.32 48.64C216.68 47.28 218.28 46.6 220.12 46.6H221.56C223.48 46.6 225.12 47.28 226.48 48.64C227.84 49.92 228.56 51.52 228.64 53.44V54.28C228.64 54.36 228.68 54.4 228.76 54.4C228.84 54.4 228.92 54.36 229 54.28C231.88 51.08 234.76 48.8 237.64 47.44C240.52 46.08 243.88 45.4 247.72 45.4C255.24 45.4 261.24 48.24 265.72 53.92C270.2 59.52 272.44 67.48 272.44 77.8C272.44 87.8 270.08 95.72 265.36 101.56C260.72 107.32 254.84 110.2 247.72 110.2C240.76 110.2 234.72 107.68 229.6 102.64C229.52 102.56 229.44 102.52 229.36 102.52C229.28 102.52 229.24 102.56 229.24 102.64V128.56C229.24 130.4 228.56 132 227.2 133.36C225.92 134.72 224.36 135.4 222.52 135.4H220.12ZM314.75 79C303.31 79 297.59 82.52 297.59 89.56C297.59 92.12 298.31 94.2 299.75 95.8C301.27 97.4 303.19 98.2 305.51 98.2C310.07 98.2 313.75 96.8 316.55 94C319.35 91.12 320.75 87.2 320.75 82.24V80.08C320.75 79.36 320.39 79 319.67 79H314.75ZM301.19 110.2C295.75 110.2 291.23 108.44 287.63 104.92C284.11 101.32 282.35 96.68 282.35 91C282.35 84.04 284.99 78.64 290.27 74.8C295.63 70.96 303.79 69.04 314.75 69.04H319.67C320.39 69.04 320.75 68.68 320.75 67.96V67C320.75 63.32 319.87 60.76 318.11 59.32C316.35 57.8 313.23 57.04 308.75 57.04C304.11 57.04 298.43 57.88 291.71 59.56C290.27 59.96 288.95 59.72 287.75 58.84C286.55 57.88 285.95 56.64 285.95 55.12C285.95 53.28 286.51 51.64 287.63 50.2C288.75 48.68 290.19 47.76 291.95 47.44C298.03 46.08 303.75 45.4 309.11 45.4C319.35 45.4 326.51 47.24 330.59 50.92C334.67 54.6 336.71 61.04 336.71 70.24V102.16C336.71 104 336.03 105.6 334.67 106.96C333.39 108.32 331.83 109 329.99 109H328.67C326.75 109 325.11 108.36 323.75 107.08C322.39 105.72 321.67 104.08 321.59 102.16V100.48C321.59 100.4 321.55 100.36 321.47 100.36C321.31 100.36 321.23 100.4 321.23 100.48C316.35 106.96 309.67 110.2 301.19 110.2ZM359.456 109C357.616 109 356.016 108.32 354.656 106.96C353.296 105.6 352.616 104 352.616 102.16V53.44C352.616 51.6 353.296 50 354.656 48.64C356.016 47.28 357.616 46.6 359.456 46.6H361.856C363.696 46.6 365.296 47.28 366.656 48.64C368.016 50 368.696 51.6 368.696 53.44V58.48C368.696 58.56 368.736 58.6 368.816 58.6C368.976 58.6 369.056 58.56 369.056 58.48C371.376 55.28 374.416 52.68 378.176 50.68C381.936 48.6 386.056 47.32 390.536 46.84C392.216 46.68 393.656 47.24 394.856 48.52C396.056 49.72 396.656 51.16 396.656 52.84C396.656 54.52 396.056 55.96 394.856 57.16C393.656 58.36 392.216 59.04 390.536 59.2C376.376 60.32 369.296 67.52 369.296 80.8V102.16C369.296 104 368.616 105.6 367.256 106.96C365.896 108.32 364.296 109 362.456 109H359.456ZM413.618 60.64C412.018 60.64 410.658 60.08 409.538 58.96C408.418 57.76 407.858 56.36 407.858 54.76C407.858 53.16 408.418 51.8 409.538 50.68C410.658 49.56 412.018 49 413.618 49H419.378C420.098 49 420.458 48.64 420.458 47.92V33.04C420.458 31.2 421.098 29.6 422.378 28.24C423.738 26.88 425.338 26.2 427.178 26.2H429.578C431.418 26.2 433.018 26.88 434.378 28.24C435.738 29.6 436.418 31.2 436.418 33.04V47.92C436.418 48.64 436.778 49 437.498 49H451.178C452.778 49 454.138 49.56 455.258 50.68C456.458 51.8 457.058 53.16 457.058 54.76C457.058 56.36 456.458 57.76 455.258 58.96C454.138 60.08 452.778 60.64 451.178 60.64H437.498C436.778 60.64 436.418 60.96 436.418 61.6V85.84C436.418 91.04 436.978 94.4 438.098 95.92C439.218 97.44 441.538 98.2 445.058 98.2C446.978 98.2 448.418 98.12 449.378 97.96C450.978 97.8 452.378 98.16 453.578 99.04C454.778 99.92 455.378 101.12 455.378 102.64C455.378 104.4 454.778 106 453.578 107.44C452.458 108.8 451.058 109.56 449.378 109.72C445.858 110.04 443.218 110.2 441.458 110.2C433.698 110.2 428.258 108.56 425.138 105.28C422.018 101.92 420.458 95.96 420.458 87.4V61.6C420.458 60.96 420.098 60.64 419.378 60.64H413.618ZM484.111 109C482.271 109 480.671 108.32 479.311 106.96C477.951 105.6 477.271 104 477.271 102.16V53.44C477.271 51.6 477.951 50 479.311 48.64C480.671 47.28 482.271 46.6 484.111 46.6H487.231C489.071 46.6 490.671 47.28 492.031 48.64C493.391 50 494.071 51.6 494.071 53.44V102.16C494.071 104 493.391 105.6 492.031 106.96C490.671 108.32 489.071 109 487.231 109H484.111ZM484.111 33.4C482.271 33.4 480.671 32.72 479.311 31.36C477.951 30 477.271 28.4 477.271 26.56V25.84C477.271 24 477.951 22.4 479.311 21.04C480.671 19.68 482.271 19 484.111 19H487.231C489.071 19 490.671 19.68 492.031 21.04C493.391 22.4 494.071 24 494.071 25.84V26.56C494.071 28.4 493.391 30 492.031 31.36C490.671 32.72 489.071 33.4 487.231 33.4H484.111Z" fill="#172B66"/>
<path d="M521 109C519.16 109 517.56 108.32 516.2 106.96C514.92 105.6 514.28 104 514.28 102.16V53.44C514.28 51.6 514.92 50 516.2 48.64C517.56 47.28 519.16 46.6 521 46.6H522.68C524.52 46.6 526.08 47.24 527.36 48.52C528.72 49.8 529.44 51.36 529.52 53.2V54.04C529.52 54.12 529.56 54.16 529.64 54.16C529.8 54.16 529.88 54.12 529.88 54.04C534.6 48.28 539.92 45.4 545.84 45.4C549.44 45.4 552.32 46.08 554.48 47.44C556.72 48.8 558.68 51.2 560.36 54.64C560.36 54.72 560.44 54.76 560.6 54.76C560.68 54.76 560.76 54.72 560.84 54.64C565.88 48.48 571.56 45.4 577.88 45.4C584.52 45.4 589.28 47.2 592.16 50.8C595.12 54.4 596.6 60.6 596.6 69.4V102.16C596.6 104 595.92 105.6 594.56 106.96C593.28 108.32 591.72 109 589.88 109H587.84C586 109 584.4 108.32 583.04 106.96C581.68 105.6 581 104 581 102.16V71.8C581 65.96 580.44 62.12 579.32 60.28C578.2 58.44 576.04 57.52 572.84 57.52C570.76 57.52 568.68 58.48 566.6 60.4C564.52 62.32 563.48 64.24 563.48 66.16V102.16C563.48 104 562.8 105.6 561.44 106.96C560.08 108.32 558.48 109 556.64 109H554.6C552.76 109 551.16 108.32 549.8 106.96C548.52 105.6 547.88 104 547.88 102.16V71.8C547.88 66.04 547.28 62.24 546.08 60.4C544.96 58.48 542.8 57.52 539.6 57.52C537.52 57.52 535.44 58.48 533.36 60.4C531.28 62.32 530.24 64.24 530.24 66.16V102.16C530.24 104 529.56 105.6 528.2 106.96C526.84 108.32 525.24 109 523.4 109H521ZM642 79C630.56 79 624.84 82.52 624.84 89.56C624.84 92.12 625.56 94.2 627 95.8C628.52 97.4 630.44 98.2 632.76 98.2C637.32 98.2 641 96.8 643.8 94C646.6 91.12 648 87.2 648 82.24V80.08C648 79.36 647.64 79 646.92 79H642ZM628.44 110.2C623 110.2 618.48 108.44 614.88 104.92C611.36 101.32 609.6 96.68 609.6 91C609.6 84.04 612.24 78.64 617.52 74.8C622.88 70.96 631.04 69.04 642 69.04H646.92C647.64 69.04 648 68.68 648 67.96V67C648 63.32 647.12 60.76 645.36 59.32C643.6 57.8 640.48 57.04 636 57.04C631.36 57.04 625.68 57.88 618.96 59.56C617.52 59.96 616.2 59.72 615 58.84C613.8 57.88 613.2 56.64 613.2 55.12C613.2 53.28 613.76 51.64 614.88 50.2C616 48.68 617.44 47.76 619.2 47.44C625.28 46.08 631 45.4 636.36 45.4C646.6 45.4 653.76 47.24 657.84 50.92C661.92 54.6 663.96 61.04 663.96 70.24V102.16C663.96 104 663.28 105.6 661.92 106.96C660.64 108.32 659.08 109 657.24 109H655.92C654 109 652.36 108.36 651 107.08C649.64 105.72 648.92 104.08 648.84 102.16V100.48C648.84 100.4 648.8 100.36 648.72 100.36C648.56 100.36 648.48 100.4 648.48 100.48C643.6 106.96 636.92 110.2 628.44 110.2ZM686.706 109C684.866 109 683.266 108.32 681.906 106.96C680.546 105.6 679.866 104 679.866 102.16V53.44C679.866 51.6 680.546 50 681.906 48.64C683.266 47.28 684.866 46.6 686.706 46.6H688.266C690.186 46.6 691.786 47.28 693.066 48.64C694.426 49.92 695.146 51.52 695.226 53.44V54.28C695.226 54.36 695.266 54.4 695.346 54.4C695.426 54.4 695.506 54.36 695.586 54.28C701.026 48.36 707.386 45.4 714.666 45.4C721.946 45.4 727.226 47.48 730.506 51.64C733.866 55.72 735.546 62.56 735.546 72.16V102.16C735.546 104 734.866 105.6 733.506 106.96C732.146 108.32 730.546 109 728.706 109H726.666C724.826 109 723.226 108.32 721.866 106.96C720.586 105.6 719.946 104 719.946 102.16V73.36C719.946 67.36 719.146 63.28 717.546 61.12C716.026 58.88 713.266 57.76 709.266 57.76C705.986 57.76 702.946 59.16 700.146 61.96C697.346 64.76 695.946 67.76 695.946 70.96V102.16C695.946 104 695.266 105.6 693.906 106.96C692.546 108.32 690.946 109 689.106 109H686.706Z" fill="#6FCCE5"/>
<defs>
<linearGradient id="paint0_linear_28_2" x1="80" y1="0" x2="80" y2="160" gradientUnits="userSpaceOnUse">
<stop stop-color="#00C9FF"/>
<stop offset="0.713542" stop-color="#3B73F8"/>
<stop offset="1" stop-color="#172B66"/>
</linearGradient>
</defs>
</svg>
