<svg width="160" height="160" viewBox="0 0 160 160" fill="none" xmlns="http://www.w3.org/2000/svg">
<path d="M0 10V160H48.6188V127.13C48.6188 121.667 54.5969 118.31 59.2616 121.153L75.3922 130.983C76.8814 131.891 78.7358 131.957 80.2858 131.157L102.057 119.931C106.716 117.528 112.265 120.91 112.265 126.152V160H160V47.7348C160 21.3716 138.628 0 112.265 0L80.7385 20.3217C78.9689 21.4624 76.6744 21.3723 74.9996 20.0965L48.6188 0H10C4.47715 0 0 4.47715 0 10Z" fill="url(#paint0_linear_23_17)"/>
<path d="M84.87 46.24V72.75C84.87 73.2633 85.1633 73.5933 85.75 73.74C88.5367 74.1067 91.25 74.29 93.89 74.29C99.83 74.29 104.34 73.0067 107.42 70.44C110.573 67.8 112.15 64.06 112.15 59.22C112.15 49.4667 106.063 44.59 93.89 44.59C91.25 44.59 88.5367 44.7733 85.75 45.14C85.1633 45.2867 84.87 45.6533 84.87 46.24ZM75.85 114C74.1633 114 72.6967 113.377 71.45 112.13C70.2767 110.883 69.69 109.417 69.69 107.73V40.52C69.69 38.76 70.2767 37.1833 71.45 35.79C72.6233 34.3967 74.09 33.6267 75.85 33.48C82.0833 32.8933 88.0967 32.6 93.89 32.6C104.89 32.6 113.14 34.8 118.64 39.2C124.14 43.5267 126.89 49.8333 126.89 58.12C126.89 67.2867 124.213 74.2167 118.86 78.91C113.58 83.6033 105.733 85.95 95.32 85.95C92.9 85.95 89.71 85.8033 85.75 85.51C85.1633 85.51 84.87 85.8033 84.87 86.39V107.73C84.87 109.417 84.2467 110.883 83 112.13C81.7533 113.377 80.2867 114 78.6 114H75.85Z" fill="white"/>
<defs>
<linearGradient id="paint0_linear_23_17" x1="80" y1="0" x2="80" y2="160" gradientUnits="userSpaceOnUse">
<stop stop-color="#00C9FF"/>
<stop offset="0.713542" stop-color="#3B73F8"/>
<stop offset="1" stop-color="#172B66"/>
</linearGradient>
</defs>
</svg>
